<svg width="13" height="20" viewBox="0 0 14 21" fill="none"
    xmlns="http://www.w3.org/2000/svg">
    <path fill-rule="evenodd" clip-rule="evenodd" d="M7 0.000281293C3.66601 -0.0232602 0.896669 2.56651 0.696983 5.8946C0.497298 9.22269 2.93711 12.125 6.25 12.5003V16.8003C6.25 17.2145 6.58579 17.5503 7 17.5503C7.41421 17.5503 7.75 17.2145 7.75 16.8003V12.5003C11.0629 12.125 13.5027 9.22269 13.303 5.8946C13.1033 2.56651 10.334 -0.0232602 7 0.000281293ZM6.35 3.47028C5.19962 3.47027 4.2655 4.39991 4.26 5.55028C4.26 5.96449 3.92421 6.30028 3.51 6.30028C3.09579 6.30028 2.76 5.96449 2.76 5.55028C2.76551 3.57149 4.3712 1.97027 6.35 1.97028C6.76421 1.97028 7.1 2.30607 7.1 2.72028C7.1 3.13449 6.76421 3.47028 6.35 3.47028Z" fill="#687693"/>
    <path d="M10.82 13.7903C11.0108 13.4298 11.4521 13.2841 11.82 13.4603C13.0479 13.9332 13.8956 15.0686 14 16.3803C14 18.5903 11 20.2603 7 20.2603C3 20.2603 0 18.5903 0 16.3803C0.122742 15.0873 0.967314 13.9754 2.18 13.5103C2.55003 13.3225 3.00222 13.4703 3.19 13.8403C3.37778 14.2103 3.23003 14.6625 2.86 14.8503C1.98 15.3003 1.48 15.8603 1.48 16.3803C1.48 17.4603 3.85 18.7003 7.01 18.7003C10.17 18.7003 12.53 17.4503 12.53 16.3203C12.53 15.7903 12.03 15.2403 11.15 14.7903C10.7851 14.6032 10.6382 14.1578 10.82 13.7903Z" fill="#687693"/>
</svg>
