<svg width="12" height="18" viewBox="0 0 12 18" fill="none"
    xmlns="http://www.w3.org/2000/svg">
    <path d="M10.2385 12.5943C9.49464 12.131 8.56394 12.0856 7.77851 12.4743L4.7785 9.47433C5.00065 8.96759 5.04985 8.40182 4.9185 7.86433C4.89616 7.7895 4.86944 7.71604 4.8385 7.64433L7.77851 4.70433C8.87936 5.24712 10.2117 4.90299 10.912 3.89498C11.6122 2.88697 11.4698 1.51834 10.5771 0.676074C9.68425 -0.166188 8.30965 -0.228682 7.34411 0.529092C6.37857 1.28687 6.11257 2.63694 6.71851 3.70433L3.9485 6.43433C3.00536 5.76394 1.72541 5.82839 0.854371 6.59013C-0.0166662 7.35186 -0.251139 8.6118 0.287558 9.63589C0.826256 10.66 1.99733 11.1806 3.1185 10.8943C3.35153 10.8259 3.57372 10.7249 3.7785 10.5943L6.77851 13.5943C6.16236 14.7989 6.62087 16.2751 7.81105 16.9186C9.00122 17.5621 10.4875 17.1375 11.158 15.9623C11.8286 14.7871 11.438 13.2916 10.2785 12.5943H10.2385Z" fill="#b4b7c9"/>
</svg>
